HIERARCHY
ROOT Hips
{
    OFFSET 0.000000 0.000000 0.000000
    CHANNELS 6 Xposition Yposition Zposition Zrotation Xrotation Yrotation
    JOINT Spine
    {
        OFFSET -0.000000 14.517291 0.000000
        CHANNELS 3 Zrotation Xrotation Yrotation
        JOINT Spine1
        {
            OFFSET -0.000000 37.558300 0.000000
            CHANNELS 3 Zrotation Xrotation Yrotation
            JOINT Neck
            {
                OFFSET -0.000000 37.404057 3.400369
                CHANNELS 3 Zrotation Xrotation Yrotation
                JOINT Head
                {
                    OFFSET -0.000000 24.785618 -3.540803
                    CHANNELS 3 Zrotation Xrotation Yrotation
                    End Site
                    {
                        OFFSET -0.000000 35.408028 0.000000
                    }
                }
            }
            JOINT LeftShoulder
            {
                OFFSET 6.992933 33.973492 -0.192664
                CHANNELS 3 Zrotation Xrotation Yrotation
                JOINT LeftArm
                {
                    OFFSET 21.527611 0.000000 0.000000
                    CHANNELS 3 Zrotation Xrotation Yrotation
                    JOINT LeftForeArm
                    {
                        OFFSET 56.353916 0.000000 0.000000
                        CHANNELS 3 Zrotation Xrotation Yrotation
                        JOINT LeftHand
                        {
                            OFFSET 47.774071 0.000000 0.000000
                            CHANNELS 3 Zrotation Xrotation Yrotation
                            End Site
                            {
                                OFFSET 26.556021 0.000000 0.000000
                            }
                        }
                    }
                }
            }
            JOINT RightShoulder
            {
                OFFSET -7.065357 33.973492 -0.192664
                CHANNELS 3 Zrotation Xrotation Yrotation
                JOINT RightArm
                {
                    OFFSET -21.527611 0.000000 0.000000
                    CHANNELS 3 Zrotation Xrotation Yrotation
                    JOINT RightForeArm
                    {
                        OFFSET -56.353916 0.000000 0.000000
                        CHANNELS 3 Zrotation Xrotation Yrotation
                        JOINT RightHand
                        {
                            OFFSET -47.774071 0.000000 0.000000
                            CHANNELS 3 Zrotation Xrotation Yrotation
                            End Site
                            {
                                OFFSET -26.556021 0.000000 0.000000
                            }
                        }
                    }
                }
            }
        }
    }
    JOINT LeftUpLeg
    {
        OFFSET 17.704014 0.000000 0.000000
        CHANNELS 3 Zrotation Xrotation Yrotation
        JOINT LeftLeg
        {
            OFFSET -0.000000 -81.181816 0.000000
            CHANNELS 3 Zrotation Xrotation Yrotation
            JOINT LeftFoot
            {
                OFFSET -0.000000 -62.821102 0.000000
                CHANNELS 3 Zrotation Xrotation Yrotation
                JOINT LeftToeBase
                {
                    OFFSET -0.000000 -11.507608 26.556021
                    CHANNELS 3 Zrotation Xrotation Yrotation
                    End Site
                    {
                        OFFSET -0.000000 0.000000 7.081605
                    }
                }
            }
        }
    }
    JOINT RightUpLeg
    {
        OFFSET -17.704014 0.000000 0.000000
        CHANNELS 3 Zrotation Xrotation Yrotation
        JOINT RightLeg
        {
            OFFSET -0.000000 -81.181816 0.000000
            CHANNELS 3 Zrotation Xrotation Yrotation
            JOINT RightFoot
            {
                OFFSET -0.000000 -62.821102 0.000000
                CHANNELS 3 Zrotation Xrotation Yrotation
                JOINT RightToeBase
                {
                    OFFSET -0.000000 -11.507608 26.556021
                    CHANNELS 3 Zrotation Xrotation Yrotation
                    End Site
                    {
                        OFFSET -0.000000 0.000000 7.081605
                    }
                }
            }
        }
    }
}
MOTION
Frames:    8
Frame Time:    0.008333
6.170326    154.423126    -10.219620    -1.991791    -0.394302    -29.703796    4.402773    0.258384    1.585320    -1.378971    0.997804    0.543452    14.731157    5.749958    12.179742    -8.189231    -2.137461    9.934659    -0.855148    9.816385    -11.120151    -38.584267    9.189344    -36.748695    35.199253    -43.757801    -43.779846    -17.100462    -28.520542    -28.008165    -4.833234    5.993801    -2.809553    36.624725    10.531902    74.577057    4.548679    -12.063632    95.471092    12.527137    -14.863080    19.239315    24.273233    -18.163452    24.164989    -18.757946    20.237686    15.105565    3.522256    0.891345    54.241352    0.000000    0.000000    0.000000    -10.276502    -3.237944    -8.974506    6.925894    35.371628    -4.906730    4.808458    -24.973764    -12.786443    0.000000    0.000000    0.000000    
6.169312    154.425873    -10.230676    -1.991248    -0.385259    -29.692560    4.407905    0.251757    1.588660    -1.377167    1.006696    0.544397    14.726813    5.744199    12.183619    -8.189954    -2.143209    9.937826    -0.853020    9.819303    -11.119411    -38.587646    9.168856    -36.751011    35.180748    -43.757538    -43.812603    -17.082161    -28.521286    -28.005465    -4.823833    5.985708    -2.812442    36.618999    10.532208    74.571808    4.555364    -12.068406    95.467735    12.540746    -14.869487    19.266088    24.275930    -18.172369    24.154228    -18.760498    20.220642    15.120950    3.498640    0.880821    54.242275    0.000000    0.000000    0.000000    -10.270055    -3.243480    -8.978693    6.932773    35.363976    -4.908665    4.803212    -24.973389    -12.800478    0.000000    0.000000    0.000000    
6.167378    154.430206    -10.241842    -1.990348    -0.373637    -29.681032    4.407743    0.242169    1.594634    -1.372878    1.023798    0.546570    14.758266    5.865823    12.128196    -8.338287    -2.347658    9.854964    -0.833597    9.820123    -11.107038    -38.605824    9.148710    -36.780727    35.155407    -43.752743    -43.852093    -17.040411    -28.525618    -27.978905    -4.815135    5.972972    -2.827211    36.611504    10.530990    74.569710    4.535502    -12.072813    95.465752    12.519145    -14.858464    19.246143    24.282127    -18.185581    24.169638    -18.751383    20.214779    15.105884    3.485667    0.897499    54.237782    0.000000    0.000000    0.000000    -10.264145    -3.254151    -8.974616    6.949209    35.362206    -4.926528    4.806685    -24.962358    -12.810245    0.000000    0.000000    0.000000    
6.165472    154.432205    -10.250924    -1.991122    -0.362824    -29.669756    4.416490    0.230763    1.593569    -1.373415    1.033992    0.546086    14.765149    5.867019    12.131431    -8.353994    -2.352993    9.854910    -0.836063    9.812956    -11.111134    -38.602863    9.145706    -36.769825    35.177414    -43.760654    -43.843159    -17.049049    -28.526897    -27.983068    -4.805866    5.975000    -2.820481    36.613678    10.521832    74.567474    4.530095    -12.069600    95.458145    12.506360    -14.850699    19.251356    24.286018    -18.198706    24.170101    -18.741671    20.212683    15.095765    3.454874    0.880451    54.244873    0.000000    0.000000    0.000000    -10.256027    -3.264184    -8.981853    6.952390    35.362671    -4.932602    4.793299    -24.956408    -12.805477    0.000000    0.000000    0.000000    
6.161959    154.434113    -10.260478    -1.991686    -0.352917    -29.661530    4.421097    0.218978    1.592345    -1.371103    1.047513    0.545662    14.760899    5.850401    12.134295    -8.345159    -2.338002    9.858570    -0.839918    9.809575    -11.092868    -38.588253    9.165854    -36.790348    35.242989    -43.774956    -43.780594    -17.184790    -28.488176    -28.127432    -4.803207    5.967918    -2.810977    36.608128    10.525964    74.559029    4.514208    -12.088569    95.461716    12.490666    -14.858050    19.225046    24.292542    -18.209003    24.173613    -18.738428    20.208187    15.085948    3.443813    0.888040    54.241241    0.000000    0.000000    0.000000    -10.248425    -3.276401    -8.993220    6.947463    35.369904    -4.950851    4.815280    -24.947943    -12.779669    0.000000    0.000000    0.000000    
6.155265    154.436478    -10.267229    -1.994483    -0.343525    -29.654921    4.431590    0.204992    1.597388    -1.379743    1.059222    0.547412    14.781771    5.846216    12.135859    -8.360843    -2.327137    9.855851    -0.827263    9.810799    -11.101030    -38.588272    9.154716    -36.785412    35.240700    -43.788391    -43.789921    -17.161356    -28.511206    -28.102148    -4.794877    5.969144    -2.814385    36.620037    10.525222    74.560608    4.506835    -12.085097    95.447952    12.466913    -14.849133    19.227983    24.308016    -18.218344    24.180500    -18.742764    20.210756    15.091665    3.417345    0.875049    54.240337    0.000000    0.000000    0.000000    -10.239273    -3.281220    -8.997075    6.952694    35.368294    -4.931102    4.807806    -24.946194    -12.807993    0.000000    0.000000    0.000000    
6.151459    154.438812    -10.272174    -1.993691    -0.339203    -29.646166    4.433216    0.203016    1.600092    -1.382925    1.054174    0.548268    14.779966    5.851075    12.139579    -8.347230    -2.329142    9.862609    -0.823915    9.795589    -11.103693    -38.606522    9.132957    -36.768402    35.209461    -43.773560    -43.823067    -17.148634    -28.499882    -28.085115    -4.780808    5.969335    -2.818518    36.614841    10.535066    74.557457    4.499582    -12.099354    95.443497    12.450032    -14.858751    19.220686    24.308949    -18.224081    24.175264    -18.740816    20.206289    15.069895    3.402155    0.875699    54.258533    0.000000    0.000000    0.000000    -10.237303    -3.280537    -9.022923    6.943995    35.362167    -4.929078    4.821525    -24.942299    -12.785888    0.000000    0.000000    0.000000    
6.144818    154.438538    -10.279852    -1.995538    -0.328774    -29.640368    4.445006    0.185332    1.603323    -1.384242    1.063235    0.549184    14.761189    5.732138    12.193759    -8.229442    -2.147862    9.936769    -0.832949    9.794561    -11.107759    -38.585575    9.141056    -36.762024    35.225094    -43.803253    -43.801239    -17.148319    -28.535513    -28.096729    -4.795353    5.984023    -2.815744    36.626129    10.543993    74.570358    4.495030    -12.122901    95.434456    12.418652    -14.882319    19.214853    24.317350    -18.234041    24.180391    -18.736475    20.203430    15.075846    3.401674    0.881190    54.245171    0.000000    0.000000    0.000000    -10.230672    -3.283188    -9.029937    6.954291    35.351730    -4.959266    4.811931    -24.935122    -12.759401    0.000000    0.000000    0.000000    
